<svg xmlns="http://www.w3.org/2000/svg" width="600" height="400" viewBox="0 0 600 400">
  <defs>
    <linearGradient id="grad1" x1="0%" y1="0%" x2="100%" y2="100%">
      <stop offset="0%" style="stop-color:#4361ee;stop-opacity:0.2" />
      <stop offset="100%" style="stop-color:#3a0ca3;stop-opacity:0.4" />
    </linearGradient>
  </defs>
  <rect width="600" height="400" fill="url(#grad1)" />
  
  <!-- Career Path Visualization -->
  <path d="M100,300 Q200,100 300,200 T500,100" stroke="#4361ee" stroke-width="6" fill="none" stroke-linecap="round" />
  
  <!-- People -->
  <circle cx="100" cy="300" r="20" fill="#4cc9f0" />
  <circle cx="300" cy="200" r="20" fill="#f72585" />
  <circle cx="500" cy="100" r="20" fill="#4361ee" />
  
  <!-- Icons -->
  <rect x="150" y="250" width="50" height="50" rx="10" fill="#f72585" opacity="0.7" />
  <rect x="250" y="150" width="50" height="50" rx="10" fill="#4361ee" opacity="0.7" />
  <rect x="350" y="200" width="50" height="50" rx="10" fill="#4cc9f0" opacity="0.7" />
  <rect x="450" y="120" width="50" height="50" rx="10" fill="#3a0ca3" opacity="0.7" />
  
  <!-- Text Placeholders -->
  <rect x="100" y="350" width="120" height="10" rx="5" fill="#3a0ca3" opacity="0.5" />
  <rect x="100" y="370" width="80" height="10" rx="5" fill="#3a0ca3" opacity="0.3" />
  
  <rect x="300" y="250" width="120" height="10" rx="5" fill="#3a0ca3" opacity="0.5" />
  <rect x="300" y="270" width="80" height="10" rx="5" fill="#3a0ca3" opacity="0.3" />
  
  <rect x="450" y="180" width="120" height="10" rx="5" fill="#3a0ca3" opacity="0.5" />
  <rect x="450" y="200" width="80" height="10" rx="5" fill="#3a0ca3" opacity="0.3" />
</svg> 