<svg xmlns="http://www.w3.org/2000/svg" width="64" height="64" viewBox="0 0 64 64" fill="none">
  <rect width="64" height="64" rx="12" fill="#4361EE"/>
  <path d="M32 16C26.4772 16 22 20.4772 22 26C22 31.5228 26.4772 36 32 36C37.5228 36 42 31.5228 42 26C42 20.4772 37.5228 16 32 16ZM29 24C29 22.3431 30.3431 21 32 21C33.6569 21 35 22.3431 35 24C35 25.6569 33.6569 27 32 27C30.3431 27 29 25.6569 29 24Z" fill="white"/>
  <path d="M16 42C16 38.6863 18.6863 36 22 36H42C45.3137 36 48 38.6863 48 42V44C48 46.2091 46.2091 48 44 48H20C17.7909 48 16 46.2091 16 44V42Z" fill="white"/>
  <path d="M22 48H42V50C42 52.2091 40.2091 54 38 54H26C23.7909 54 22 52.2091 22 50V48Z" fill="white"/>
</svg> 